<mxfile host="app.diagrams.net" modified="2021-09-21T02:51:57.408Z" agent="5.0 (Macintosh; Intel Mac OS X 10_15_7) AppleWebKit/537.36 (KHTML, like Gecko) Chrome/93.0.4577.82 Safari/537.36" etag="IzDnBciv7cEOWC_rcpIY" version="15.2.9" type="github">
  <diagram id="lfcYRj-z5WQWy-Ie9aHP" name="Page-1">
    <mxGraphModel dx="3104" dy="1090" grid="1" gridSize="10" guides="1" tooltips="1" connect="1" arrows="1" fold="1" page="1" pageScale="1" pageWidth="1169" pageHeight="1654" math="0" shadow="0">
      <root>
        <mxCell id="0" />
        <mxCell id="1" parent="0" />
        <mxCell id="Zz1W2glAR9nbvZjRJ-s7-1" value="开始" style="rounded=1;whiteSpace=wrap;html=1;" vertex="1" parent="1">
          <mxGeometry x="280" y="40" width="80" height="30" as="geometry" />
        </mxCell>
        <mxCell id="Zz1W2glAR9nbvZjRJ-s7-2" value="nod != NULL" style="rhombus;whiteSpace=wrap;html=1;" vertex="1" parent="1">
          <mxGeometry x="280" y="170" width="80" height="50" as="geometry" />
        </mxCell>
        <mxCell id="Zz1W2glAR9nbvZjRJ-s7-3" value="输入查找的元素targ&lt;br&gt;和二叉树的指针*nod" style="shape=parallelogram;perimeter=parallelogramPerimeter;whiteSpace=wrap;html=1;fixedSize=1;" vertex="1" parent="1">
          <mxGeometry x="250" y="100" width="140" height="40" as="geometry" />
        </mxCell>
        <mxCell id="Zz1W2glAR9nbvZjRJ-s7-4" value="nod-&amp;gt;data == targ" style="rhombus;whiteSpace=wrap;html=1;" vertex="1" parent="1">
          <mxGeometry x="260" y="250" width="120" height="60" as="geometry" />
        </mxCell>
        <mxCell id="Zz1W2glAR9nbvZjRJ-s7-5" value="printf(&quot;查找值存在，为%d\n&quot;,targ);" style="rounded=0;whiteSpace=wrap;html=1;" vertex="1" parent="1">
          <mxGeometry x="430" y="320" width="185" height="30" as="geometry" />
        </mxCell>
        <mxCell id="Zz1W2glAR9nbvZjRJ-s7-22" value="" style="edgeStyle=orthogonalEdgeStyle;rounded=0;orthogonalLoop=1;jettySize=auto;html=1;" edge="1" parent="1" source="Zz1W2glAR9nbvZjRJ-s7-6" target="Zz1W2glAR9nbvZjRJ-s7-21">
          <mxGeometry relative="1" as="geometry" />
        </mxCell>
        <mxCell id="Zz1W2glAR9nbvZjRJ-s7-6" value="nod-&amp;gt;data &amp;gt; targ" style="rhombus;whiteSpace=wrap;html=1;" vertex="1" parent="1">
          <mxGeometry x="260" y="360" width="120" height="60" as="geometry" />
        </mxCell>
        <mxCell id="Zz1W2glAR9nbvZjRJ-s7-7" value="" style="endArrow=classic;html=1;exitX=0.5;exitY=1;exitDx=0;exitDy=0;entryX=0.5;entryY=0;entryDx=0;entryDy=0;" edge="1" parent="1" source="Zz1W2glAR9nbvZjRJ-s7-1" target="Zz1W2glAR9nbvZjRJ-s7-3">
          <mxGeometry width="50" height="50" relative="1" as="geometry">
            <mxPoint x="450" y="250" as="sourcePoint" />
            <mxPoint x="500" y="200" as="targetPoint" />
          </mxGeometry>
        </mxCell>
        <mxCell id="Zz1W2glAR9nbvZjRJ-s7-8" value="" style="endArrow=classic;html=1;exitX=0.5;exitY=1;exitDx=0;exitDy=0;entryX=0.5;entryY=0;entryDx=0;entryDy=0;" edge="1" parent="1" source="Zz1W2glAR9nbvZjRJ-s7-3" target="Zz1W2glAR9nbvZjRJ-s7-2">
          <mxGeometry width="50" height="50" relative="1" as="geometry">
            <mxPoint x="450" y="250" as="sourcePoint" />
            <mxPoint x="500" y="200" as="targetPoint" />
          </mxGeometry>
        </mxCell>
        <mxCell id="Zz1W2glAR9nbvZjRJ-s7-9" value="" style="endArrow=classic;html=1;exitX=0.5;exitY=1;exitDx=0;exitDy=0;entryX=0.5;entryY=0;entryDx=0;entryDy=0;" edge="1" parent="1" source="Zz1W2glAR9nbvZjRJ-s7-2" target="Zz1W2glAR9nbvZjRJ-s7-4">
          <mxGeometry width="50" height="50" relative="1" as="geometry">
            <mxPoint x="450" y="250" as="sourcePoint" />
            <mxPoint x="500" y="200" as="targetPoint" />
          </mxGeometry>
        </mxCell>
        <mxCell id="Zz1W2glAR9nbvZjRJ-s7-10" value="Yes" style="text;html=1;align=center;verticalAlign=middle;resizable=0;points=[];autosize=1;strokeColor=none;fillColor=none;" vertex="1" parent="1">
          <mxGeometry x="320" y="220" width="40" height="20" as="geometry" />
        </mxCell>
        <mxCell id="Zz1W2glAR9nbvZjRJ-s7-11" value="" style="endArrow=classic;html=1;exitX=1;exitY=0.5;exitDx=0;exitDy=0;entryX=0.5;entryY=0;entryDx=0;entryDy=0;" edge="1" parent="1" source="Zz1W2glAR9nbvZjRJ-s7-4" target="Zz1W2glAR9nbvZjRJ-s7-5">
          <mxGeometry width="50" height="50" relative="1" as="geometry">
            <mxPoint x="450" y="250" as="sourcePoint" />
            <mxPoint x="500" y="200" as="targetPoint" />
            <Array as="points">
              <mxPoint x="523" y="280" />
            </Array>
          </mxGeometry>
        </mxCell>
        <mxCell id="Zz1W2glAR9nbvZjRJ-s7-12" value="Yes" style="text;html=1;align=center;verticalAlign=middle;resizable=0;points=[];autosize=1;strokeColor=none;fillColor=none;" vertex="1" parent="1">
          <mxGeometry x="380" y="260" width="40" height="20" as="geometry" />
        </mxCell>
        <mxCell id="Zz1W2glAR9nbvZjRJ-s7-13" value="" style="endArrow=classic;html=1;exitX=0.5;exitY=1;exitDx=0;exitDy=0;entryX=0.5;entryY=0;entryDx=0;entryDy=0;" edge="1" parent="1" source="Zz1W2glAR9nbvZjRJ-s7-4" target="Zz1W2glAR9nbvZjRJ-s7-6">
          <mxGeometry width="50" height="50" relative="1" as="geometry">
            <mxPoint x="450" y="250" as="sourcePoint" />
            <mxPoint x="500" y="200" as="targetPoint" />
          </mxGeometry>
        </mxCell>
        <mxCell id="Zz1W2glAR9nbvZjRJ-s7-14" value="No" style="text;html=1;align=center;verticalAlign=middle;resizable=0;points=[];autosize=1;strokeColor=none;fillColor=none;" vertex="1" parent="1">
          <mxGeometry x="325" y="320" width="30" height="20" as="geometry" />
        </mxCell>
        <mxCell id="Zz1W2glAR9nbvZjRJ-s7-15" value="searchData(targ,node-&amp;gt;left);" style="rounded=0;whiteSpace=wrap;html=1;" vertex="1" parent="1">
          <mxGeometry x="80" y="365" width="160" height="50" as="geometry" />
        </mxCell>
        <mxCell id="Zz1W2glAR9nbvZjRJ-s7-17" value="" style="endArrow=classic;html=1;exitX=0;exitY=0.5;exitDx=0;exitDy=0;" edge="1" parent="1" source="Zz1W2glAR9nbvZjRJ-s7-6">
          <mxGeometry width="50" height="50" relative="1" as="geometry">
            <mxPoint x="370" y="320" as="sourcePoint" />
            <mxPoint x="240" y="390" as="targetPoint" />
          </mxGeometry>
        </mxCell>
        <mxCell id="Zz1W2glAR9nbvZjRJ-s7-18" value="" style="endArrow=classic;html=1;exitX=0.5;exitY=0;exitDx=0;exitDy=0;" edge="1" parent="1" source="Zz1W2glAR9nbvZjRJ-s7-15">
          <mxGeometry width="50" height="50" relative="1" as="geometry">
            <mxPoint x="160" y="360" as="sourcePoint" />
            <mxPoint x="320" y="80" as="targetPoint" />
            <Array as="points">
              <mxPoint x="160" y="80" />
            </Array>
          </mxGeometry>
        </mxCell>
        <mxCell id="Zz1W2glAR9nbvZjRJ-s7-19" value="Yes" style="text;html=1;align=center;verticalAlign=middle;resizable=0;points=[];autosize=1;strokeColor=none;fillColor=none;" vertex="1" parent="1">
          <mxGeometry x="240" y="365" width="40" height="20" as="geometry" />
        </mxCell>
        <mxCell id="Zz1W2glAR9nbvZjRJ-s7-25" value="" style="edgeStyle=orthogonalEdgeStyle;rounded=0;orthogonalLoop=1;jettySize=auto;html=1;" edge="1" parent="1" source="Zz1W2glAR9nbvZjRJ-s7-21" target="Zz1W2glAR9nbvZjRJ-s7-24">
          <mxGeometry relative="1" as="geometry" />
        </mxCell>
        <mxCell id="Zz1W2glAR9nbvZjRJ-s7-21" value="nod-&amp;gt;data &amp;gt; targ" style="rhombus;whiteSpace=wrap;html=1;" vertex="1" parent="1">
          <mxGeometry x="260" y="460" width="120" height="60" as="geometry" />
        </mxCell>
        <mxCell id="Zz1W2glAR9nbvZjRJ-s7-23" value="No" style="text;html=1;align=center;verticalAlign=middle;resizable=0;points=[];autosize=1;strokeColor=none;fillColor=none;" vertex="1" parent="1">
          <mxGeometry x="325" y="420" width="30" height="20" as="geometry" />
        </mxCell>
        <mxCell id="Zz1W2glAR9nbvZjRJ-s7-24" value="SearchData(targ,nod-&amp;gt;right)" style="whiteSpace=wrap;html=1;" vertex="1" parent="1">
          <mxGeometry x="-70" y="460" width="160" height="60" as="geometry" />
        </mxCell>
        <mxCell id="Zz1W2glAR9nbvZjRJ-s7-27" value="" style="endArrow=none;html=1;exitX=0.5;exitY=0;exitDx=0;exitDy=0;" edge="1" parent="1" source="Zz1W2glAR9nbvZjRJ-s7-24">
          <mxGeometry width="50" height="50" relative="1" as="geometry">
            <mxPoint x="280" y="280" as="sourcePoint" />
            <mxPoint x="170" y="80" as="targetPoint" />
            <Array as="points">
              <mxPoint x="10" y="80" />
            </Array>
          </mxGeometry>
        </mxCell>
        <mxCell id="Zz1W2glAR9nbvZjRJ-s7-28" value="printd(&quot;查找值不存在\n&quot;);" style="rounded=0;whiteSpace=wrap;html=1;" vertex="1" parent="1">
          <mxGeometry x="250" y="560" width="140" height="30" as="geometry" />
        </mxCell>
        <mxCell id="Zz1W2glAR9nbvZjRJ-s7-30" value="" style="endArrow=classic;html=1;entryX=0.5;entryY=0;entryDx=0;entryDy=0;" edge="1" parent="1" target="Zz1W2glAR9nbvZjRJ-s7-28">
          <mxGeometry width="50" height="50" relative="1" as="geometry">
            <mxPoint x="320" y="520" as="sourcePoint" />
            <mxPoint x="540" y="440" as="targetPoint" />
          </mxGeometry>
        </mxCell>
        <mxCell id="Zz1W2glAR9nbvZjRJ-s7-31" value="结束" style="rounded=1;whiteSpace=wrap;html=1;" vertex="1" parent="1">
          <mxGeometry x="280" y="650" width="80" height="30" as="geometry" />
        </mxCell>
        <mxCell id="Zz1W2glAR9nbvZjRJ-s7-34" value="" style="endArrow=classic;html=1;exitX=1;exitY=0.5;exitDx=0;exitDy=0;" edge="1" parent="1" source="Zz1W2glAR9nbvZjRJ-s7-2">
          <mxGeometry width="50" height="50" relative="1" as="geometry">
            <mxPoint x="500" y="310" as="sourcePoint" />
            <mxPoint x="320" y="540" as="targetPoint" />
            <Array as="points">
              <mxPoint x="660" y="195" />
              <mxPoint x="660" y="540" />
            </Array>
          </mxGeometry>
        </mxCell>
        <mxCell id="Zz1W2glAR9nbvZjRJ-s7-35" value="" style="endArrow=classic;html=1;exitX=0.5;exitY=1;exitDx=0;exitDy=0;entryX=0.5;entryY=0;entryDx=0;entryDy=0;entryPerimeter=0;" edge="1" parent="1" source="Zz1W2glAR9nbvZjRJ-s7-28" target="Zz1W2glAR9nbvZjRJ-s7-31">
          <mxGeometry width="50" height="50" relative="1" as="geometry">
            <mxPoint x="500" y="580" as="sourcePoint" />
            <mxPoint x="550" y="530" as="targetPoint" />
          </mxGeometry>
        </mxCell>
        <mxCell id="Zz1W2glAR9nbvZjRJ-s7-41" value="" style="shape=requiredInterface;html=1;verticalLabelPosition=bottom;" vertex="1" parent="1">
          <mxGeometry x="523" y="530" width="10" height="20" as="geometry" />
        </mxCell>
        <mxCell id="Zz1W2glAR9nbvZjRJ-s7-42" value="" style="endArrow=none;html=1;exitX=0.5;exitY=1;exitDx=0;exitDy=0;" edge="1" parent="1" source="Zz1W2glAR9nbvZjRJ-s7-5">
          <mxGeometry width="50" height="50" relative="1" as="geometry">
            <mxPoint x="780" y="480" as="sourcePoint" />
            <mxPoint x="523" y="530" as="targetPoint" />
          </mxGeometry>
        </mxCell>
        <mxCell id="Zz1W2glAR9nbvZjRJ-s7-44" value="" style="endArrow=classic;html=1;exitX=0.019;exitY=1.003;exitDx=0;exitDy=0;exitPerimeter=0;" edge="1" parent="1">
          <mxGeometry width="50" height="50" relative="1" as="geometry">
            <mxPoint x="523.19" y="550.06" as="sourcePoint" />
            <mxPoint x="320" y="620" as="targetPoint" />
            <Array as="points">
              <mxPoint x="520" y="620" />
            </Array>
          </mxGeometry>
        </mxCell>
      </root>
    </mxGraphModel>
  </diagram>
</mxfile>
